<?xml version="1.0" encoding="UTF-8" standalone="no"?>
<svg width="251px" height="85px" viewBox="0 0 251 85" version="1.1" xmlns="http://www.w3.org/2000/svg" xmlns:xlink="http://www.w3.org/1999/xlink">
    <!-- Generator: Sketch 3.8.3 (29802) - http://www.bohemiancoding.com/sketch -->
    <title>App Store Button</title>
    <desc>Created with Sketch.</desc>
    <defs></defs>
    <g id="Symbols" stroke="none" stroke-width="1" fill="none" fill-rule="evenodd">
        <g id="App-Store-Button">
            <g id="App-Store">
                <rect id="background" fill="#C5B358" x="0" y="0" width="251" height="85" rx="15"></rect>
                <g id="icon" transform="translate(21.581801, 14.960000)" fill="#000000">
                    <path d="M33.3664269,25.5942191 C33.3117387,19.5141059 38.3430535,16.556111 38.5731211,16.4183982 C35.7236771,12.2624908 31.3071332,11.6946615 29.7551196,11.649386 C26.0457507,11.2588854 22.4476441,13.8697687 20.5580723,13.8697687 C18.6307846,13.8697687 15.7209949,11.6871156 12.5849093,11.7512557 C8.54929695,11.8135095 4.77392505,14.1508536 2.70331648,17.7804341 C-1.56990666,25.1810808 1.6170956,36.0566168 5.71116772,42.0386333 C7.75914668,44.9702175 10.1522271,48.239481 13.2845411,48.1244059 C16.3489664,47.9998985 17.4936471,46.1700165 21.1917012,46.1700165 C24.8558108,46.1700165 25.9307169,48.1244059 29.1252624,48.0489469 C32.4140978,47.9998985 34.4847064,45.1079303 36.461025,42.1499354 C38.8277042,38.7957805 39.7781474,35.4850145 39.8158634,35.3152316 C39.7404314,35.2907074 33.4305441,32.8816772 33.3664269,25.5942191" id="Fill-2"></path>
                    <path d="M27.3318664,7.71419639 C28.9800558,5.65227776 30.1077643,2.84708745 29.7947214,0.000394665665 C27.4091843,0.10603734 24.4258484,1.65106146 22.7078845,3.66770466 C21.1879296,5.44476536 19.8301534,8.35748482 20.1809123,11.0966485 C22.8606343,11.296615 25.6120167,9.74404493 27.3318664,7.71419639" id="Fill-3"></path>
                </g>
                <g transform="translate(77.491753, 36.550000)" fill="#000000">
                    <path d="M21.8425525,26.1137217 L17.5599003,26.1137217 L15.2139649,18.7394857 L7.05976508,18.7394857 L4.8250919,26.1137217 L0.655587767,26.1137217 L8.73624141,1.00849467 L13.7260686,1.00849467 L21.8425525,26.1137217 L21.8425525,26.1137217 Z M14.5067899,15.6456645 L12.3852647,9.09204576 C12.1608545,8.42046018 11.7384353,6.84336597 11.1198928,4.36076311 L11.0444608,4.36076311 C10.7955352,5.42850872 10.3976313,7.00560293 9.8526351,9.09204576 L7.76694013,15.6456645 L14.5067899,15.6456645 L14.5067899,15.6456645 Z" id="Fill-4"></path>
                    <path d="M42.5825825,16.8398041 C42.5825825,19.9185334 41.747173,22.3520879 40.0744683,24.138581 C38.577143,25.7288805 36.7158582,26.5230871 34.4962715,26.5230871 C32.0994195,26.5230871 30.3757981,25.6685133 29.3291791,23.9537063 L29.3291791,33.4521147 L25.3086531,33.4521147 L25.3086531,13.9610412 C25.3086531,12.0274029 25.2577365,10.0447163 25.1596749,8.01109482 L28.6955502,8.01109482 L28.9199604,10.8823118 L28.9953924,10.8823118 C30.3361963,8.71852344 32.3709747,7.6375725 35.1016133,7.6375725 C37.2363391,7.6375725 39.0184202,8.48082742 40.4440851,10.1692237 C41.8678643,11.861393 42.5825825,14.0836621 42.5825825,16.8398041 L42.5825825,16.8398041 Z M38.4866246,16.9869492 C38.4866246,15.2249803 38.0906065,13.7723935 37.2947989,12.6291889 C36.425445,11.4388223 35.2581347,10.8408093 33.7947538,10.8408093 C32.8028229,10.8408093 31.9014105,11.1728292 31.0961738,11.8293229 C30.2890513,12.4877032 29.7610273,13.3498228 29.5139875,14.4194549 C29.3895247,14.9155982 29.3272933,15.3211906 29.3272933,15.6418916 L29.3272933,18.6640267 C29.3272933,19.9770142 29.7308545,21.0881488 30.5379769,21.9974304 C31.3450994,22.902939 32.3936043,23.3575798 33.6834916,23.3575798 C35.1977891,23.3575798 36.3764142,22.7708856 37.2193669,21.6069298 C38.0642053,20.4392009 38.4866246,18.8998362 38.4866246,16.9869492 L38.4866246,16.9869492 Z" id="Fill-5"></path>
                    <path d="M63.3961588,16.8398041 C63.3961588,19.9185334 62.5607493,22.3520879 60.8880446,24.138581 C59.3888334,25.7288805 57.5294345,26.5230871 55.3079619,26.5230871 C52.9129957,26.5230871 51.1893744,25.6685133 50.1408695,23.9537063 L50.1408695,33.4521147 L46.1203436,33.4521147 L46.1203436,13.9610412 C46.1203436,12.0274029 46.069427,10.0447163 45.9713654,8.01109482 L49.5072407,8.01109482 L49.7316509,10.8823118 L49.8070829,10.8823118 C51.146001,8.71852344 53.1807794,7.6375725 55.9133038,7.6375725 C58.0461437,7.6375725 59.8301107,8.48082742 61.2576614,10.1692237 C62.6795547,11.861393 63.3961588,14.0836621 63.3961588,16.8398041 L63.3961588,16.8398041 Z M59.298315,16.9869492 C59.298315,15.2249803 58.9004112,13.7723935 58.1046035,12.6291889 C57.2371355,11.4388223 56.071711,10.8408093 54.6083301,10.8408093 C53.6163992,10.8408093 52.7149867,11.1728292 51.9059785,11.8293229 C51.1007418,12.4877032 50.5727177,13.3498228 50.3256779,14.4194549 C50.2031009,14.9155982 50.1370979,15.3211906 50.1370979,15.6418916 L50.1370979,18.6640267 C50.1370979,19.9770142 50.5425449,21.0881488 51.3458958,21.9974304 C52.1530183,22.9010525 53.2015232,23.3575798 54.4951821,23.3575798 C56.0113654,23.3575798 57.1899905,22.7708856 58.0310573,21.6069298 C58.8758958,20.4392009 59.298315,18.8998362 59.298315,16.9869492 L59.298315,16.9869492 Z" id="Fill-6"></path>
                    <path d="M86.6669326,19.073392 C86.6669326,21.2088832 85.9220416,22.9463279 84.436031,24.2876126 C82.8029281,25.7515183 80.5229957,26.4853576 77.6000055,26.4853576 C74.8995397,26.4853576 72.7346411,25.9646901 71.1015382,24.9214687 L72.0312377,21.5692002 C73.7944608,22.6124216 75.7311775,23.1349756 77.8395021,23.1349756 C79.3556854,23.1349756 80.5343105,22.7916369 81.3753774,22.1106189 C82.2202159,21.425828 82.6445209,20.51466 82.6445209,19.3752282 C82.6445209,18.3546446 82.2937621,17.4981843 81.5997876,16.8020745 C80.9039274,16.1097377 79.7535893,15.4607899 78.1393443,14.8684363 C73.74543,13.2290884 71.546587,10.8294905 71.546587,7.6771885 C71.546587,5.61715635 72.3235367,3.93064651 73.8717786,2.61199955 C75.4219063,1.29523907 77.4774285,0.636858828 80.0345735,0.636858828 C82.3182775,0.636858828 84.2210498,1.03490533 85.7315757,1.82911187 L84.7226727,5.10780774 C83.3007794,4.33812539 81.6959634,3.95328422 79.9006817,3.95328422 C78.48256,3.95328422 77.3680521,4.30228234 76.5741302,4.99650563 C75.9046712,5.61715635 75.5633413,6.37363336 75.5633413,7.27159609 C75.5633413,8.26199617 75.9499304,9.08449985 76.7212226,9.72778828 C77.3887959,10.3239148 78.6070228,10.9709762 80.3683601,11.6651995 C82.5294871,12.5367515 84.115445,13.5516758 85.1337771,14.7175182 C86.1577666,15.8833606 86.6669326,17.3378338 86.6669326,19.073392" id="Fill-7"></path>
                    <path d="M99.9938823,11.0294569 L95.5622519,11.0294569 L95.5622519,19.8185502 C95.5622519,22.0540246 96.3429732,23.1689322 97.9081873,23.1689322 C98.6266772,23.1689322 99.22259,23.1085649 99.6940401,22.982171 L99.8053023,26.0363762 C99.0132662,26.332553 97.9704187,26.4815846 96.6805314,26.4815846 C95.0908019,26.4815846 93.8518312,25.9948737 92.9541903,25.0271113 C92.0603211,24.0574625 91.6133864,22.4332064 91.6133864,20.1467971 L91.6133864,11.021911 L88.975152,11.021911 L88.975152,8.00354891 L91.6133864,8.00354891 L91.6133864,4.68900999 L95.5622519,3.49675695 L95.5622519,8.00354891 L99.9938823,8.00354891 L99.9938823,11.0294569" id="Fill-8"></path>
                    <path d="M119.949419,16.9133766 C119.949419,19.6959292 119.155498,21.9804521 117.565768,23.7669452 C115.904378,25.6043731 113.69422,26.5230871 110.939066,26.5230871 C108.280088,26.5230871 106.166106,25.6421026 104.589577,23.8801337 C103.013048,22.1181648 102.224784,19.8958957 102.224784,17.2152128 C102.224784,14.4100225 103.041335,12.1122944 104.663123,10.3258013 C106.288683,8.53930819 108.479983,7.64323193 111.235137,7.64323193 C113.892229,7.64323193 116.023184,8.52798933 117.639314,10.2880718 C119.181899,11.9991058 119.949419,14.2043966 119.949419,16.9133766 L119.949419,16.9133766 Z M115.781801,17.005814 C115.781801,15.3476013 115.423499,13.9251981 114.705009,12.7348316 C113.862057,11.2973366 112.653259,10.5804756 111.091816,10.5804756 C109.483229,10.5804756 108.244258,11.2973366 107.405077,12.7348316 C106.682815,13.9251981 106.326399,15.3721255 106.326399,17.081273 C106.326399,18.7413722 106.682815,20.1675483 107.405077,21.3522554 C108.274431,22.7916369 109.487,23.5103844 111.059758,23.5103844 C112.594799,23.5103844 113.799825,22.7746586 114.672951,21.3182989 C115.410299,20.0996352 115.781801,18.6677996 115.781801,17.005814 L115.781801,17.005814 Z" id="Fill-9"></path>
                    <path d="M133.023672,11.5482379 C132.625768,11.4746654 132.199577,11.4388223 131.756414,11.4388223 C130.342064,11.4388223 129.2483,11.9689222 128.478894,13.0404407 C127.809434,13.9836789 127.475648,15.1759319 127.475648,16.6153134 L127.475648,26.1137217 L123.455122,26.1137217 L123.455122,13.7120263 C123.455122,11.6274699 123.41552,9.72401533 123.338202,8.01298129 L126.840133,8.01298129 L126.987226,11.4765518 L127.098488,11.4765518 C127.524679,10.2861853 128.192252,9.32596882 129.108751,8.60910781 C130.006392,7.96015995 130.971921,7.6375725 132.014769,7.6375725 C132.386271,7.6375725 132.721944,7.66586965 133.0199,7.71114508 L133.023672,11.5482379" id="Fill-10"></path>
                    <path d="M151.004776,16.205948 C151.004776,16.926582 150.957631,17.5340273 150.857684,18.0301706 L138.797992,18.0301706 C138.841365,19.8185502 139.427849,21.188132 140.546129,22.1313702 C141.562575,22.9727386 142.878863,23.3953093 144.491223,23.3953093 C146.277075,23.3953093 147.906407,23.1123379 149.371673,22.5388491 L150.001531,25.330834 C148.289224,26.0759922 146.265761,26.4495145 143.934912,26.4495145 C141.128841,26.4495145 138.926226,25.6232379 137.323296,23.9744576 C135.726024,22.3237908 134.922673,20.1034081 134.922673,17.326515 C134.922673,14.5986702 135.665678,12.3254662 137.159232,10.5125624 C138.720674,8.57703772 140.830885,7.60927536 143.486091,7.60927536 C146.094153,7.60927536 148.068586,8.57703772 149.407504,10.5125624 C150.471095,12.0462677 151.004776,13.9478358 151.004776,16.205948 L151.004776,16.205948 Z M147.170945,15.1627266 C147.199232,13.9685871 146.93522,12.942344 146.390223,12.0707919 C145.694363,10.9502249 144.623229,10.3918279 143.188135,10.3918279 C141.871846,10.3918279 140.802598,10.9370196 139.987932,12.0311759 C139.318473,12.9008415 138.920569,13.9478358 138.797992,15.1589536 L147.170945,15.1627266 L147.170945,15.1627266 Z" id="Fill-11"></path>
                </g>
                <g id="Available-on-the" transform="translate(79.021205, 14.960000)" fill="#000000">
                    <path d="M11.0387357,13.6132079 L8.93229696,13.6132079 L7.78007307,9.98928685 L3.77274775,9.98928685 L2.67332626,13.6132079 L0.623461495,13.6132079 L4.59495661,1.27376619 L7.04649681,1.27376619 L11.0387357,13.6132079 L11.0387357,13.6132079 Z M7.43308584,8.46878693 L6.39023835,5.24668535 C6.28086195,4.91655199 6.07908133,4.14875612 5.76792431,2.92254651 L5.7302083,2.92254651 C5.60197389,3.45264636 5.41905128,4.2223287 5.14372446,5.24668535 L4.11973497,8.46878693 L7.43308584,8.46878693 L7.43308584,8.46878693 Z" id="Fill-12"></path>
                    <path d="M20.9693593,4.7165855 L17.6013202,13.6132079 L15.6796899,13.6132079 L12.4210272,4.7165855 L14.5444382,4.7165855 L16.0643931,9.42145748 C16.3208619,10.2081181 16.5396148,10.9589357 16.7036794,11.6720237 L16.7583676,11.6720237 C16.90546,11.0325083 17.1242128,10.2816907 17.3976538,9.42145748 L18.8987508,4.7165855 L20.9693593,4.7165855" id="Fill-13"></path>
                    <path d="M28.1391715,13.6132079 L27.9920791,12.5888512 L27.9373909,12.5888512 C27.3339348,13.4132414 26.455152,13.8150609 25.3387583,13.8150609 C23.7471429,13.8150609 22.6118912,12.6982669 22.6118912,11.1966317 C22.6118912,9.00077325 24.5146636,7.8651145 27.8091565,7.8651145 L27.8091565,7.70099106 C27.8091565,6.52948926 27.1868424,5.94279512 25.9610723,5.94279512 C25.0822894,5.94279512 24.312883,6.16351285 23.6377665,6.60306183 L23.2360911,5.30327964 C24.0601858,4.79015808 25.0841752,4.5335973 26.2929731,4.5335973 C28.6162789,4.5335973 29.7892466,5.75980691 29.7892466,8.21411262 L29.7892466,11.490922 C29.7892466,12.3888847 29.8269626,13.0849945 29.917481,13.6150944 L28.1391715,13.6132079 L28.1391715,13.6132079 Z M27.8638447,9.18187498 C25.6668875,9.18187498 24.5693518,9.71386131 24.5693518,10.975914 C24.5693518,11.9097198 25.1369776,12.366247 25.9233563,12.366247 C26.9303736,12.366247 27.8638447,11.5984512 27.8638447,10.5552298 L27.8638447,9.18187498 L27.8638447,9.18187498 Z" id="Fill-14"></path>
                    <path d="M34.1907042,3.25079339 C33.5325599,3.25079339 33.0196223,2.73767183 33.0196223,2.06042682 C33.0196223,1.38318182 33.5495321,0.888925019 34.2284202,0.888925019 C34.9054224,0.888925019 35.4541903,1.38318182 35.4353323,2.06042682 C35.4353323,2.77540135 34.9242804,3.25079339 34.1907042,3.25079339 L34.1907042,3.25079339 Z M33.2402609,4.7165855 L35.2165795,4.7165855 L35.2165795,13.6132079 L33.2402609,13.6132079 L33.2402609,4.7165855 Z" id="Fill-15"></path>
                    <polygon id="Fill-16" points="38.7279393 0.634250714 40.7042579 0.634250714 40.7042579 13.6132079 38.7279393 13.6132079"></polygon>
                    <path d="M49.1036118,13.6132079 L48.9546335,12.5888512 L48.9018311,12.5888512 C48.2983751,13.4132414 47.4195922,13.8150609 46.3031985,13.8150609 C44.7115832,13.8150609 43.5763315,12.6982669 43.5763315,11.1966317 C43.5763315,9.00077325 45.4791039,7.8651145 48.7735967,7.8651145 L48.7735967,7.70099106 C48.7735967,6.52948926 48.1512827,5.94279512 46.9255126,5.94279512 C46.0467297,5.94279512 45.2773233,6.16351285 44.6022068,6.60306183 L44.1986456,5.30139316 C45.0227402,4.7882716 46.0467297,4.53171082 47.2555276,4.53171082 C49.5788334,4.53171082 50.7536869,5.75792044 50.7536869,8.21222615 L50.7536869,11.4890355 C50.7536869,12.3869983 50.7914029,13.083108 50.8781497,13.6132079 L49.1036118,13.6132079 L49.1036118,13.6132079 Z M48.8282849,9.18187498 C46.6313278,9.18187498 45.5337921,9.71386131 45.5337921,10.975914 C45.5337921,11.9097198 46.1014179,12.366247 46.8877966,12.366247 C47.8948139,12.366247 48.8282849,11.5984512 48.8282849,10.5552298 L48.8282849,9.18187498 L48.8282849,9.18187498 Z" id="Fill-17"></path>
                    <path d="M58.7589085,13.8150609 C57.4973082,13.8150609 56.565723,13.2830745 55.9603811,12.2398531 L55.9226651,12.2398531 L55.8095171,13.6132079 L54.1273834,13.6132079 C54.1801858,12.9001198 54.1990438,12.092708 54.1990438,11.2154965 L54.1990438,0.634250714 L56.1791339,0.634250714 L56.1791339,6.01825417 L56.2149641,6.01825417 C56.801448,5.02974057 57.7518912,4.53548377 59.0512076,4.53548377 C61.1934765,4.53548377 62.6945734,6.36725229 62.6945734,9.03850278 C62.6945734,11.8003041 61.0275261,13.8150609 58.7589085,13.8150609 L58.7589085,13.8150609 Z M58.3572331,6.08805379 C57.2200956,6.08805379 56.1791339,7.07656739 56.1791339,8.44992216 L56.1791339,10.0062651 C56.1791339,11.2324748 57.1144908,12.2398531 58.3214029,12.2398531 C59.801756,12.2398531 60.6843105,11.0325083 60.6843105,9.11018888 C60.6824247,7.31614989 59.7659258,6.08805379 58.3572331,6.08805379 L58.3572331,6.08805379 Z" id="Fill-18"></path>
                    <polygon id="Fill-19" points="65.6194495 0.634250714 67.5938822 0.634250714 67.5938822 13.6132079 65.6194495 13.6132079"></polygon>
                    <path d="M78.3504863,9.64028873 L72.417759,9.64028873 C72.4573608,11.3249121 73.5699829,12.2756962 75.2162864,12.2756962 C76.0969551,12.2756962 76.9021918,12.128551 77.6150242,11.8550119 L77.9224097,13.2283667 C77.0813428,13.5943431 76.0931835,13.7773313 74.9409596,13.7773313 C72.1575186,13.7773313 70.5112151,12.0191354 70.5112151,9.29317708 C70.5112151,6.56533231 72.1971204,4.51473253 74.720321,4.51473253 C76.9870528,4.51473253 78.4183751,6.1993559 78.4183751,8.74421247 C78.4240325,9.09132412 78.4070603,9.40259271 78.3504863,9.64028873 L78.3504863,9.64028873 Z M76.5401181,8.23109091 C76.5401181,6.85773614 75.8423721,5.8880873 74.578886,5.8880873 C73.4436343,5.8880873 72.549765,6.8766009 72.417759,8.23109091 L76.5401181,8.23109091 L76.5401181,8.23109091 Z" id="Fill-20"></path>
                    <path d="M90.3290888,13.8150609 C87.7304562,13.8150609 86.0464367,11.8738767 86.0464367,9.23846927 C86.0464367,6.49175973 87.7662864,4.5335973 90.4780671,4.5335973 C93.0370979,4.5335973 94.7607192,6.3823441 94.7607192,9.09321059 C94.7607192,11.8738767 92.9842955,13.8150609 90.3290888,13.8150609 L90.3290888,13.8150609 Z M90.4045208,5.97863817 C88.9769701,5.97863817 88.0623571,7.31426341 88.0623571,9.18187498 C88.0623571,11.0136435 88.9958281,12.3492687 90.3856628,12.3492687 C91.7754976,12.3492687 92.7089686,10.9212062 92.7089686,9.14414545 C92.7089686,7.33312817 91.7943556,5.97863817 90.4045208,5.97863817 L90.4045208,5.97863817 Z" id="Fill-21"></path>
                    <path d="M105.385317,13.6132079 L103.41277,13.6132079 L103.41277,8.50462998 C103.41277,6.93130872 102.807428,6.14276161 101.617489,6.14276161 C100.446407,6.14276161 99.6392842,7.15013997 99.6392842,8.32164177 L99.6392842,13.6132079 L97.6667372,13.6132079 L97.6667372,7.2595556 C97.6667372,6.47289497 97.6441076,5.62964005 97.5913052,4.71469902 L99.330013,4.71469902 L99.4224172,6.08805379 L99.4789912,6.08805379 C100.005129,5.13726972 101.087579,4.53171082 102.296377,4.53171082 C104.159547,4.53171082 105.385317,5.9597734 105.385317,8.28391225 L105.385317,13.6132079" id="Fill-22"></path>
                    <path d="M118.316249,6.1993559 L116.141921,6.1993559 L116.141921,10.5193867 C116.141921,11.6192024 116.524739,12.168167 117.292259,12.168167 C117.639247,12.168167 117.935317,12.1304375 118.171042,12.0757297 L118.22573,13.5773648 C117.841027,13.72451 117.326204,13.7980826 116.690689,13.7980826 C115.131132,13.7980826 114.203319,12.9378494 114.203319,10.6853966 L114.203319,6.1993559 L112.907774,6.1993559 L112.907774,4.7165855 L114.203319,4.7165855 L114.203319,3.08666995 L116.141921,2.49997581 L116.141921,4.71469902 L118.316249,4.71469902 L118.316249,6.1993559" id="Fill-23"></path>
                    <path d="M128.78244,13.6132079 L126.804235,13.6132079 L126.804235,8.5423595 C126.804235,6.95017348 126.198894,6.14464808 125.010839,6.14464808 C123.98685,6.14464808 123.036407,6.84075785 123.036407,8.24995567 L123.036407,13.6132079 L121.058202,13.6132079 L121.058202,0.634250714 L123.036407,0.634250714 L123.036407,5.97863817 L123.074123,5.97863817 C123.694551,5.00898933 124.594078,4.53171082 125.746301,4.53171082 C127.630216,4.53171082 128.78244,5.99561645 128.78244,8.32164177 L128.78244,13.6132079" id="Fill-24"></path>
                    <path d="M138.8809,9.64028873 L132.950058,9.64028873 C132.987774,11.3249121 134.100396,12.2756962 135.748585,12.2756962 C136.63114,12.2756962 137.434491,12.128551 138.143552,11.8550119 L138.452823,13.2283667 C137.613642,13.5943431 136.623597,13.7773313 135.469487,13.7773313 C132.687932,13.7773313 131.041628,12.0191354 131.041628,9.29317708 C131.041628,6.56533231 132.725648,4.51473253 135.248848,4.51473253 C137.517466,4.51473253 138.946903,6.1993559 138.946903,8.74421247 C138.954446,9.09132412 138.935588,9.40259271 138.8809,9.64028873 L138.8809,9.64028873 Z M137.068646,8.23109091 C137.068646,6.85773614 136.374671,5.8880873 135.111185,5.8880873 C133.975933,5.8880873 133.080178,6.8766009 132.950058,8.23109091 L137.068646,8.23109091 L137.068646,8.23109091 Z" id="Fill-25"></path>
                </g>
            </g>
        </g>
    </g>
</svg>