<?xml version="1.0" encoding="UTF-8" standalone="no"?>
<svg width="250px" height="85px" viewBox="0 0 250 85" version="1.1" xmlns="http://www.w3.org/2000/svg" xmlns:xlink="http://www.w3.org/1999/xlink" xmlns:sketch="http://www.bohemiancoding.com/sketch/ns">
    <!-- Generator: Sketch 3.3.3 (12081) - http://www.bohemiancoding.com/sketch -->
    <title>App Store Button</title>
    <desc>Created with Sketch.</desc>
    <defs></defs>
    <g id="Welcome" stroke="none" stroke-width="1" fill="none" fill-rule="evenodd" sketch:type="MSPage">
        <g id="HOME-PAGE" sketch:type="MSArtboardGroup" transform="translate(-595.000000, -439.000000)">
            <g id="App-Store-Button" sketch:type="MSLayerGroup" transform="translate(595.000000, 439.000000)">
                <rect id="background" fill-opacity="0.75" fill="#000000" sketch:type="MSShapeGroup" x="0" y="0" width="250" height="84.6310088" rx="5"></rect>
                <path d="M54.7293105,40.3781703 C54.6748402,34.3244513 59.6861099,31.3792972 59.9152609,31.2421823 C57.0771692,27.104316 52.6782211,26.5389516 51.1323909,26.4938727 C47.4378003,26.1050673 43.8540287,28.7046165 41.9719852,28.7046165 C40.0523758,28.7046165 37.154179,26.5314385 34.0305877,26.5953002 C30.0110535,26.6572837 26.250723,28.9844813 24.1883638,32.5983055 C19.9321655,39.9668254 23.1064705,50.79515 27.1842316,56.7511981 C29.2240513,59.6700561 31.6075975,62.9251274 34.7274322,62.8105519 C37.7796486,62.686585 38.9197688,60.8646466 42.6030896,60.8646466 C46.2526012,60.8646466 47.3232248,62.8105519 50.505043,62.7354204 C53.7807755,62.686585 55.8431347,59.807171 57.8115795,56.862017 C60.1688296,53.5224227 61.1154863,50.226029 61.153052,50.0569832 C61.0779206,50.0325655 54.7931722,47.633993 54.7293105,40.3781703" id="Fill-2" fill="#FFFFFF" sketch:type="MSShapeGroup"></path>
                <path d="M48.7187921,22.5757661 C50.3604149,20.5227984 51.4836305,17.7297856 51.1718349,14.8954505 C48.7958018,15.0006346 45.8243518,16.5389516 44.1132323,18.5468404 C42.599333,20.3161868 41.2469664,23.2162619 41.5963278,25.9435346 C44.2653736,26.1426331 47.0057943,24.5968029 48.7187921,22.5757661" id="Fill-3" fill="#FFFFFF" sketch:type="MSShapeGroup"></path>
                <path d="M98.9385517,62.3916939 L94.6729619,62.3916939 L92.3363728,55.04947 L84.2146598,55.04947 L81.9888897,62.3916939 L77.8359972,62.3916939 L85.884457,37.3954505 L90.8544044,37.3954505 L98.9385517,62.3916939 L98.9385517,62.3916939 Z M91.6320152,51.9690794 L89.5189423,45.4439103 C89.2954262,44.7752401 88.8746899,43.2049922 88.2586118,40.7331665 L88.1834803,40.7331665 C87.9355464,41.7962769 87.5392278,43.3665249 86.9964029,45.4439103 L84.9190175,51.9690794 L91.6320152,51.9690794 L91.6320152,51.9690794 Z" id="Fill-4" fill="#FFFFFF" sketch:type="MSShapeGroup"></path>
                <path d="M119.595952,53.158035 C119.595952,56.2233994 118.763871,58.6463896 117.09783,60.4251274 C115.606471,62.0085234 113.752601,62.7992822 111.541857,62.7992822 C109.154555,62.7992822 107.4378,61.9484182 106.395351,60.2410553 L106.395351,69.6982304 L102.390843,69.6982304 L102.390843,50.2917691 C102.390843,48.3665249 102.340129,46.3924452 102.242458,44.3676519 L105.764247,44.3676519 L105.987763,47.2264047 L106.062894,47.2264047 C107.398356,45.0720095 109.425028,43.995751 112.144788,43.995751 C114.271008,43.995751 116.04599,44.8353453 117.465975,46.5164122 C118.884081,48.2012356 119.595952,50.4138577 119.595952,53.158035 L119.595952,53.158035 Z M115.516313,53.3045414 C115.516313,51.5502214 115.121872,50.1039404 114.329235,48.9656984 C113.463345,47.7804993 112.300685,47.1850824 110.843135,47.1850824 C109.855156,47.1850824 108.957335,47.5156609 108.155306,48.1693047 C107.351399,48.8248269 106.825479,49.6832041 106.579423,50.7481928 C106.455456,51.2421823 106.393473,51.646014 106.393473,51.9653228 L106.393473,54.9743386 C106.393473,56.2816263 106.795426,57.3879374 107.599333,58.2932717 C108.40324,59.1948494 109.447567,59.6475166 110.732316,59.6475166 C112.24058,59.6475166 113.41451,59.0633694 114.254104,57.9044663 C115.095576,56.7418066 115.516313,55.2091244 115.516313,53.3045414 L115.516313,53.3045414 Z" id="Fill-5" fill="#FFFFFF" sketch:type="MSShapeGroup"></path>
                <path d="M140.326606,53.158035 C140.326606,56.2233994 139.494525,58.6463896 137.828484,60.4251274 C136.335246,62.0085234 134.483255,62.7992822 132.270633,62.7992822 C129.885208,62.7992822 128.168454,61.9484182 127.124126,60.2410553 L127.124126,69.6982304 L123.119619,69.6982304 L123.119619,50.2917691 C123.119619,48.3665249 123.068905,46.3924452 122.971234,44.3676519 L126.493022,44.3676519 L126.716538,47.2264047 L126.79167,47.2264047 C128.125253,45.0720095 130.151925,43.995751 132.873563,43.995751 C134.997906,43.995751 136.774765,44.8353453 138.196628,46.5164122 C139.612857,48.2012356 140.326606,50.4138577 140.326606,53.158035 L140.326606,53.158035 Z M136.245088,53.3045414 C136.245088,51.5502214 135.84877,50.1039404 135.056132,48.9656984 C134.19212,47.7804993 133.031339,47.1850824 131.573788,47.1850824 C130.585809,47.1850824 129.687988,47.5156609 128.882203,48.1693047 C128.080174,48.8248269 127.554254,49.6832041 127.308199,50.7481928 C127.18611,51.2421823 127.12037,51.646014 127.12037,51.9653228 L127.12037,54.9743386 C127.12037,56.2816263 127.524202,57.3879374 128.324352,58.2932717 C129.128259,59.1929712 130.172586,59.6475166 131.461091,59.6475166 C132.971234,59.6475166 134.145163,59.0633694 134.982879,57.9044663 C135.824352,56.7418066 136.245088,55.2091244 136.245088,53.3045414 L136.245088,53.3045414 Z" id="Fill-6" fill="#FFFFFF" sketch:type="MSShapeGroup"></path>
                <path d="M163.504667,55.3819268 C163.504667,57.5081477 162.762744,59.2380501 161.282654,60.5735121 C159.656057,62.0310628 157.385208,62.7617165 154.473863,62.7617165 C151.784156,62.7617165 149.627883,62.2433093 148.001286,61.2046165 L148.927282,57.8669005 C150.68348,58.9055933 152.612481,59.4258788 154.712406,59.4258788 C156.222549,59.4258788 157.396478,59.0840305 158.234194,58.4059689 C159.075667,57.7241507 159.498281,56.8169381 159.498281,55.6824528 C159.498281,54.6662995 159.14892,53.8135572 158.45771,53.1204693 C157.764622,52.431138 156.618867,51.7850072 155.011054,51.1952251 C150.634645,49.5629937 148.444562,47.1738126 148.444562,44.0351951 C148.444562,41.9841056 149.218416,40.3049171 150.76049,38.9919945 C152.304442,37.6809501 154.351775,37.025428 156.898732,37.025428 C159.173338,37.025428 161.068529,37.4217465 162.573037,38.2125053 L161.568153,41.4769682 C160.151925,40.7106271 158.553503,40.3274565 156.765374,40.3274565 C155.352902,40.3274565 154.242834,40.6749396 153.452075,41.3661492 C152.785283,41.9841056 152.445313,42.7372987 152.445313,43.6313633 C152.445313,44.617464 152.830362,45.4363972 153.598582,46.076893 C154.263495,46.6704317 155.476869,47.3146842 157.231189,48.0058938 C159.383706,48.8736624 160.963345,49.8841808 161.97762,51.0449621 C162.99753,52.2057435 163.504667,53.6539028 163.504667,55.3819268" id="Fill-7" fill="#FFFFFF" sketch:type="MSShapeGroup"></path>
                <path d="M176.778522,47.3729111 L172.364547,47.3729111 L172.364547,56.1238502 C172.364547,58.3496203 173.142158,59.4596879 174.701136,59.4596879 C175.416764,59.4596879 176.010302,59.3995827 176.479874,59.2737375 L176.590693,62.3146842 C175.801812,62.6095752 174.76312,62.7579599 173.478371,62.7579599 C171.894975,62.7579599 170.660941,62.2733618 169.766876,61.3098006 C168.876568,60.3443611 168.431414,58.727156 168.431414,56.4506721 L168.431414,47.3653979 L165.803691,47.3653979 L165.803691,44.3601387 L168.431414,44.3601387 L168.431414,41.0599884 L172.364547,39.8729111 L172.364547,44.3601387 L176.778522,44.3601387 L176.778522,47.3729111" id="Fill-8" fill="#FFFFFF" sketch:type="MSShapeGroup"></path>
                <path d="M196.654555,53.2312882 C196.654555,56.0017615 195.863796,58.2763671 194.2804,60.0551049 C192.625629,61.8845564 190.424277,62.7992822 187.680099,62.7992822 C185.031715,62.7992822 182.926155,61.9221222 181.355907,60.1678021 C179.785659,58.4134821 179.000535,56.20086 179.000535,53.5318141 C179.000535,50.7388014 179.813833,48.4510478 181.42916,46.67231 C183.048244,44.8935722 185.230813,44.0013859 187.97499,44.0013859 C190.621497,44.0013859 192.743961,44.8823025 194.353653,46.6347443 C195.890092,48.3383506 196.654555,50.5340681 196.654555,53.2312882 L196.654555,53.2312882 Z M192.50354,53.3233243 C192.50354,51.67231 192.146666,50.2560816 191.431039,49.0708825 C190.591444,47.6396278 189.387462,46.9258788 187.832241,46.9258788 C186.230062,46.9258788 184.996027,47.6396278 184.16019,49.0708825 C183.440806,50.2560816 183.085809,51.6967277 183.085809,53.3984558 C183.085809,55.0513483 183.440806,56.4713333 184.16019,57.6508975 C185.02608,59.0840305 186.233818,59.7996579 187.80031,59.7996579 C189.329235,59.7996579 190.529461,59.0671259 191.399108,57.6170884 C192.133518,56.403715 192.50354,54.9780951 192.50354,53.3233243 L192.50354,53.3233243 Z" id="Fill-9" fill="#FFFFFF" sketch:type="MSShapeGroup"></path>
                <path d="M209.676718,47.88944 C209.2804,47.8161868 208.855907,47.7804993 208.41451,47.7804993 C207.005794,47.7804993 205.916388,48.308298 205.150047,49.375165 C204.483255,50.3143085 204.150798,51.5013859 204.150798,52.9345189 L204.150798,62.3916939 L200.14629,62.3916939 L200.14629,50.0438352 C200.14629,47.968328 200.106846,46.0731365 200.029836,44.3695301 L203.517815,44.3695301 L203.664322,47.8180651 L203.775141,47.8180651 C204.199634,46.632866 204.864547,45.6768179 205.777395,44.9630688 C206.671459,44.3169381 207.633142,43.995751 208.671835,43.995751 C209.041857,43.995751 209.376193,44.0239253 209.672962,44.0690042 L209.676718,47.88944" id="Fill-10" fill="#FFFFFF" sketch:type="MSShapeGroup"></path>
                <path d="M227.586185,52.5269306 C227.586185,53.2444362 227.539228,53.8492446 227.439679,54.3432341 L215.428033,54.3432341 C215.471234,56.1238502 216.055381,57.4874866 217.169205,58.4266301 C218.181602,59.2643461 219.492646,59.6850824 221.098582,59.6850824 C222.87732,59.6850824 224.500159,59.4033393 225.959588,58.8323401 L226.586936,61.6122048 C224.881452,62.3541282 222.86605,62.726029 220.544487,62.726029 C217.749596,62.726029 215.555757,61.9033393 213.959213,60.2617165 C212.368304,58.6182153 211.568153,56.4074715 211.568153,53.6426331 C211.568153,50.9266301 212.308199,48.6632942 213.795802,46.8582604 C215.351023,44.931138 217.452827,43.9675767 220.097455,43.9675767 C222.695126,43.9675767 224.661692,44.931138 225.995276,46.8582604 C227.05463,48.3853078 227.586185,50.278621 227.586185,52.5269306 L227.586185,52.5269306 Z M223.767628,51.4882379 C223.795802,50.2992822 223.532842,49.2774941 222.990017,48.4097255 C222.296929,47.294023 221.230062,46.7380501 219.800685,46.7380501 C218.489641,46.7380501 217.424652,47.280875 216.613232,48.3702815 C215.94644,49.2361718 215.550122,50.278621 215.428033,51.4844813 L223.767628,51.4882379 L223.767628,51.4882379 Z" id="Fill-11" fill="#FFFFFF" sketch:type="MSShapeGroup"></path>
                <text id="Coming-soon-to-the" sketch:type="MSTextLayer" font-family="Raleway" font-size="16.5" font-weight="normal" fill="#FFFFFF">
                    <tspan x="77.586185" y="24.8006333">Coming soon to the</tspan>
                </text>
            </g>
        </g>
    </g>
</svg>