<?xml version="1.0" encoding="UTF-8" standalone="no"?>
<svg width="30px" height="30px" viewBox="0 0 30 30" version="1.1" xmlns="http://www.w3.org/2000/svg" xmlns:xlink="http://www.w3.org/1999/xlink" xmlns:sketch="http://www.bohemiancoding.com/sketch/ns">
    <!-- Generator: Sketch 3.3.3 (12081) - http://www.bohemiancoding.com/sketch -->
    <title>facebook26</title>
    <desc>Created with Sketch.</desc>
    <defs></defs>
    <g id="Welcome" stroke="none" stroke-width="1" fill="none" fill-rule="evenodd" sketch:type="MSPage">
        <g id="HOME-PAGE" sketch:type="MSArtboardGroup" transform="translate(-620.000000, -2808.000000)" fill="#FFFFFF">
            <g id="facebook26" sketch:type="MSLayerGroup" transform="translate(620.000000, 2808.000000)">
                <path d="M28.2585714,1.74119048 C27.1661905,0.648571429 25.8502381,0.102142857 24.3114286,0.102142857 L5.68880952,0.102142857 C4.15,0.102142857 2.83404762,0.648571429 1.74119048,1.74119048 C0.648571429,2.83404762 0.102142857,4.15 0.102142857,5.68880952 L0.102142857,24.3111905 C0.102142857,25.85 0.648571429,27.1659524 1.74119048,28.2588095 C2.83404762,29.3516667 4.15,29.8980952 5.68880952,29.8980952 L24.3111905,29.8980952 C25.85,29.8980952 27.1659524,29.3516667 28.2583333,28.2588095 C29.3511905,27.1659524 29.897619,25.85 29.897619,24.3111905 L29.897619,5.68880952 C29.897619,4.15 29.3511905,2.83380952 28.2585714,1.74119048 L28.2585714,1.74119048 Z M25.4557143,15.4266667 L22.0609524,15.4266667 L22.0609524,27.7445238 L16.9785714,27.7445238 L16.9785714,15.4266667 L14.437381,15.4266667 L14.437381,11.1783333 L16.9785714,11.1783333 L16.9785714,8.63714286 C16.9785714,6.81357143 17.4054762,5.43642857 18.2588095,4.5052381 C19.1121429,3.57404762 20.5216667,3.10857143 22.487619,3.10857143 L25.882381,3.10857143 L25.882381,7.35690476 L23.7488095,7.35690476 C23.0245238,7.35690476 22.5621429,7.48285714 22.3616667,7.7352381 C22.1611905,7.98738095 22.0609524,8.4302381 22.0609524,9.06404762 L22.0609524,11.1783333 L25.9019048,11.1783333 L25.4557143,15.4266667 L25.4557143,15.4266667 Z" id="Shape" sketch:type="MSShapeGroup"></path>
            </g>
        </g>
    </g>
</svg>