<?xml version="1.0" encoding="UTF-8" standalone="no"?>
<svg width="50px" height="51px" viewBox="0 0 50 51" version="1.1" xmlns="http://www.w3.org/2000/svg" xmlns:xlink="http://www.w3.org/1999/xlink">
    <!-- Generator: Sketch 3.8.3 (29802) - http://www.bohemiancoding.com/sketch -->
    <title>HypeList Icon</title>
    <desc>Created with Sketch.</desc>
    <defs></defs>
    <g id="Home-Page-V4" stroke="none" stroke-width="1" fill="none" fill-rule="evenodd">
        <g id="Home-Page" transform="translate(-48.000000, -27.000000)" fill="#FFFFFF">
            <g id="Group-2">
                <path d="M64.647557,58.0447761 L60.3589843,76.6206251 C60.2622596,77.039586 59.8434012,77.3006224 59.42404,77.2038052 L52.5895414,75.6259369 C52.1699106,75.5290575 51.9081478,75.1108679 52.0048683,74.6919255 L60.932771,36.0209303 L51.1896958,39.7609465 C50.7873228,39.915403 50.3359624,39.714529 50.1816546,39.3125434 L48.0520922,33.7648437 C47.8977394,33.362741 48.0978441,32.9119274 48.5011726,32.7571041 L63.2955209,27.0780859 L63.2955209,27.0780859 C63.450182,27.0031196 63.6305778,26.9785015 63.8110667,27.0201707 L70.6455653,28.598039 C71.0651961,28.6949184 71.3269589,29.1131079 71.2302384,29.5320504 L66.6224275,49.4906722 L80.6433803,49.4906722 L85.6181939,27.9423871 C85.7149186,27.5234263 86.1337771,27.2623899 86.5531383,27.3592071 L93.3876368,28.9370754 C93.8072676,29.0339548 94.0690304,29.4521443 93.97231,29.8710868 L85.0399285,68.5614814 L94.8103042,64.8109856 C95.2126772,64.6565291 95.6640376,64.8574031 95.8183454,65.2593886 L97.9479078,70.8070883 C98.1022606,71.209191 97.9021559,71.6600047 97.4988274,71.814828 L82.6742894,77.5054349 C82.6003464,77.533819 82.524749,77.5502034 82.4496448,77.5555452 C82.3577174,77.5684021 82.2619276,77.5649625 82.1661115,77.5428416 L75.3316129,75.9649733 C74.9119822,75.8680939 74.6502193,75.4499043 74.7469398,75.0309618 L78.6639479,58.0645358 L64.8225334,58.0645358 C64.7623716,58.0645358 64.7038025,58.0577047 64.647557,58.0447761 L64.647557,58.0447761 Z" id="HypeList-Icon"></path>
            </g>
        </g>
    </g>
</svg>