<?xml version="1.0" encoding="UTF-8" standalone="no"?>
<svg width="50px" height="51px" viewBox="0 0 50 51" version="1.1" xmlns="http://www.w3.org/2000/svg" xmlns:xlink="http://www.w3.org/1999/xlink" xmlns:sketch="http://www.bohemiancoding.com/sketch/ns">
    <!-- Generator: Sketch 3.3.3 (12081) - http://www.bohemiancoding.com/sketch -->
    <title>HypeList Icon</title>
    <desc>Created with Sketch.</desc>
    <defs></defs>
    <g id="Welcome" stroke="none" stroke-width="1" fill="none" fill-rule="evenodd" sketch:type="MSPage">
        <g id="HOME-PAGE" sketch:type="MSArtboardGroup" transform="translate(-37.000000, -27.000000)" fill="#FFFFFF">
            <path d="M53.647557,57.9175907 L49.3589843,76.2866001 C49.2622596,76.7008959 48.8434012,76.9590256 48.42404,76.8632865 L41.5895414,75.3029876 C41.1699106,75.2071869 40.9081478,74.7936538 41.0048683,74.3793762 L49.932771,36.1389774 L40.1896958,39.837349 C39.7873228,39.9900856 39.3359624,39.7914483 39.1816546,39.3939388 L37.0520922,33.908012 C36.8977394,33.5103867 37.0978441,33.0645928 37.5011726,32.9114934 L52.2955209,27.2957103 L52.2955209,27.2957103 C52.450182,27.2215788 52.6305778,27.1972348 52.8110667,27.23844 L59.6455653,28.7987389 C60.0651961,28.8945396 60.3269589,29.3080726 60.2302384,29.7223503 L55.6224275,49.4587355 L69.6433803,49.4587355 L74.6181939,28.1503877 C74.7149186,27.7360919 75.1337771,27.4779621 75.5531383,27.5737012 L82.3876368,29.1340002 C82.8072676,29.2298008 83.0690304,29.6433339 82.97231,30.0576115 L74.0399285,68.3171939 L83.8103042,64.6084593 C84.2126772,64.4557226 84.6640376,64.65436 84.8183454,65.0518694 L86.9479078,70.5377962 C87.1022606,70.9354216 86.9021559,71.3812155 86.4988274,71.5343148 L71.6742894,77.1615576 C71.6003464,77.1896257 71.524749,77.2058276 71.4496448,77.2111099 C71.3577174,77.2238237 71.2619276,77.2204224 71.1661115,77.1985478 L64.3316129,75.6382488 C63.9119822,75.5424482 63.6502193,75.1289151 63.7469398,74.7146375 L67.6639479,57.9371303 L53.8225334,57.9371303 C53.7623716,57.9371303 53.7038025,57.9303752 53.647557,57.9175907 L53.647557,57.9175907 Z" id="HypeList-Icon" sketch:type="MSShapeGroup"></path>
        </g>
    </g>
</svg>