<?xml version="1.0" encoding="UTF-8" standalone="no"?>
<svg width="30px" height="30px" viewBox="0 0 30 30" version="1.1" xmlns="http://www.w3.org/2000/svg" xmlns:xlink="http://www.w3.org/1999/xlink" xmlns:sketch="http://www.bohemiancoding.com/sketch/ns">
    <!-- Generator: Sketch 3.3.3 (12081) - http://www.bohemiancoding.com/sketch -->
    <title>instagram3</title>
    <desc>Created with Sketch.</desc>
    <defs></defs>
    <g id="Welcome" stroke="none" stroke-width="1" fill="none" fill-rule="evenodd" sketch:type="MSPage">
        <g id="HOME-PAGE" sketch:type="MSArtboardGroup" transform="translate(-770.000000, -2808.000000)" fill="#FFFFFF">
            <g id="instagram3" sketch:type="MSLayerGroup" transform="translate(770.000000, 2808.000000)">
                <path d="M28.7728571,1.22738095 C28.0228571,0.477142857 27.1238095,0.102142857 26.0766667,0.102142857 L3.92357143,0.102142857 C2.87595238,0.102142857 1.97738095,0.477380952 1.22714286,1.22738095 C0.476904762,1.97738095 0.101904762,2.87619048 0.101904762,3.92357143 L0.101904762,26.0764286 C0.101904762,27.1238095 0.476904762,28.022619 1.22714286,28.772619 C1.97738095,29.5228571 2.87619048,29.8980952 3.92357143,29.8980952 L26.0764286,29.8980952 C27.1235714,29.8980952 28.022619,29.5228571 28.772619,28.772619 C29.5228571,28.022619 29.897619,27.1238095 29.897619,26.0764286 L29.897619,3.92357143 C29.897619,2.87595238 29.5228571,1.97761905 28.7728571,1.22738095 L28.7728571,1.22738095 Z M10.8004762,10.8390476 C11.9707143,9.70761905 13.3771429,9.14166667 15.0195238,9.14166667 C16.6747619,9.14166667 18.087619,9.70761905 19.2580952,10.8390476 C20.4283333,11.9707143 21.0135714,13.3383333 21.0135714,14.9419048 C21.0135714,16.5452381 20.4283333,17.9130952 19.2580952,19.0442857 C18.087619,20.1759524 16.675,20.7419048 15.0195238,20.7419048 C13.3771429,20.7419048 11.9709524,20.1757143 10.8004762,19.0442857 C9.63,17.9128571 9.0447619,16.5452381 9.0447619,14.9419048 C9.0447619,13.3383333 9.63,11.9707143 10.8004762,10.8390476 L10.8004762,10.8390476 Z M26.5228571,25.2814286 C26.5228571,25.617381 26.4061905,25.8985714 26.1735714,26.125 C25.9404762,26.3514286 25.662619,26.4645238 25.3390476,26.4645238 L4.60261905,26.4645238 C4.26642857,26.4645238 3.985,26.3514286 3.75880952,26.125 C3.53238095,25.8990476 3.41928571,25.617381 3.41928571,25.2814286 L3.41928571,12.7109524 L6.15428571,12.7109524 C5.89571429,13.5257143 5.76642857,14.3728571 5.76642857,15.2521429 C5.76642857,17.7354762 6.67166667,19.8530952 8.48214286,21.6054762 C10.2928571,23.357619 12.4719048,24.2340476 15.0195238,24.2340476 C16.7007143,24.2340476 18.252619,23.8328571 19.6754762,23.0311905 C21.0980952,22.2290476 22.222619,21.1397619 23.0507143,19.762381 C23.8785714,18.385 24.292381,16.8814286 24.292381,15.2521429 C24.292381,14.3728571 24.162619,13.5259524 23.9040476,12.7109524 L26.5230952,12.7109524 L26.5230952,25.2814286 L26.5228571,25.2814286 Z M26.5228571,7.95833333 C26.5228571,8.33333333 26.3935714,8.6502381 26.1345238,8.90880952 C25.8759524,9.16761905 25.5592857,9.29690476 25.1840476,9.29690476 L21.8088095,9.29690476 C21.4340476,9.29690476 21.1169048,9.16761905 20.8583333,8.90880952 C20.5997619,8.6502381 20.4704762,8.33333333 20.4704762,7.95833333 L20.4704762,4.75785714 C20.4704762,4.39571429 20.5997619,4.08214286 20.8583333,3.81690476 C21.1169048,3.55190476 21.4340476,3.41928571 21.8088095,3.41928571 L25.1840476,3.41928571 C25.5592857,3.41928571 25.8759524,3.55190476 26.1345238,3.81690476 C26.3935714,4.08214286 26.5228571,4.39571429 26.5228571,4.75785714 L26.5228571,7.95833333 L26.5228571,7.95833333 Z" id="Shape" sketch:type="MSShapeGroup"></path>
            </g>
        </g>
    </g>
</svg>