<?xml version="1.0" encoding="UTF-8" standalone="no"?>
<svg width="30px" height="30px" viewBox="0 0 30 30" version="1.1" xmlns="http://www.w3.org/2000/svg" xmlns:xlink="http://www.w3.org/1999/xlink" xmlns:sketch="http://www.bohemiancoding.com/sketch/ns">
    <!-- Generator: Sketch 3.3.3 (12081) - http://www.bohemiancoding.com/sketch -->
    <title>twitter15</title>
    <desc>Created with Sketch.</desc>
    <defs></defs>
    <g id="Welcome" stroke="none" stroke-width="1" fill="none" fill-rule="evenodd" sketch:type="MSPage">
        <g id="HOME-PAGE" sketch:type="MSArtboardGroup" transform="translate(-695.000000, -2808.000000)" fill="#FFFFFF">
            <g id="twitter15" sketch:type="MSLayerGroup" transform="translate(695.000000, 2808.000000)">
                <path d="M28.2585714,1.74119048 C27.1661905,0.648571429 25.8502381,0.102142857 24.3114286,0.102142857 L5.68880952,0.102142857 C4.15,0.102142857 2.83404762,0.648571429 1.74119048,1.74119048 C0.648571429,2.83404762 0.102142857,4.15 0.102142857,5.68880952 L0.102142857,24.3111905 C0.102142857,25.85 0.648571429,27.1659524 1.74119048,28.2588095 C2.83404762,29.3516667 4.15,29.8980952 5.68880952,29.8980952 L24.3111905,29.8980952 C25.85,29.8980952 27.1659524,29.3516667 28.2583333,28.2588095 C29.3511905,27.1659524 29.897619,25.85 29.897619,24.3111905 L29.897619,5.68880952 C29.897619,4.15 29.3511905,2.83380952 28.2585714,1.74119048 L28.2585714,1.74119048 Z M22.895,11.5666667 C22.9080952,11.6830952 22.9145238,11.857381 22.9145238,12.0904762 C22.9145238,13.1769048 22.7559524,14.2664286 22.4392857,15.3590476 C22.122619,16.4519048 21.637619,17.4992857 20.9845238,18.5016667 C20.3316667,19.5038095 19.552381,20.3897619 18.647381,21.1590476 C17.7419048,21.9283333 16.6559524,22.5428571 15.3883333,23.0016667 C14.1211905,23.4611905 12.7630952,23.6907143 11.3147619,23.6907143 C9.0647619,23.6907143 6.98261905,23.082619 5.06857143,21.867381 C5.37904762,21.9059524 5.70238095,21.9254762 6.03857143,21.9254762 C7.91380952,21.9254762 9.60142857,21.3435714 11.1016667,20.1795238 C10.222381,20.1666667 9.43666667,19.8954762 8.7447619,19.3647619 C8.05285714,18.8345238 7.57119048,18.1621429 7.29952381,17.347381 C7.63571429,17.3990476 7.88785714,17.4245238 8.05595238,17.4245238 C8.34047619,17.4245238 8.6702381,17.3730952 9.0452381,17.2697619 C8.10119048,17.0883333 7.30595238,16.62 6.65928571,15.8633333 C6.01261905,15.1069048 5.68928571,14.2435714 5.68928571,13.2738095 L5.68928571,13.235 C6.37452381,13.5580952 7.02119048,13.7261905 7.62904762,13.7392857 C6.45214286,12.9502381 5.86380952,11.8188095 5.86380952,10.3445238 C5.86380952,9.6202381 6.05119048,8.935 6.42619048,8.28833333 C7.44785714,9.54285714 8.68952381,10.545 10.1507143,11.295 C11.6119048,12.045 13.1769048,12.4654762 14.845,12.5559524 C14.7804762,12.3102381 14.7480952,11.9997619 14.7480952,11.6247619 C14.7480952,10.4995238 15.1457143,9.53952381 15.9409524,8.74404762 C16.7364286,7.94880952 17.6966667,7.55095238 18.8216667,7.55095238 C20.0116667,7.55095238 21.0009524,7.97785714 21.7897619,8.83142857 C22.6821429,8.66333333 23.5490476,8.33333333 24.3892857,7.84214286 C24.0661905,8.83761905 23.4645238,9.59428571 22.5854762,10.1116667 C23.4257143,9.995 24.2080952,9.7752381 24.9321429,9.45190476 C24.3890476,10.2797619 23.7097619,10.9845238 22.895,11.5666667 L22.895,11.5666667 Z" id="Shape" sketch:type="MSShapeGroup"></path>
            </g>
        </g>
    </g>
</svg>